# xmcd
#
# Track frame offsets:
#   150
#   13068
#   25390
#   38754
#   51849
#   65174
#   78214
#   89582
#   102309
#   115590
#   128679
#   139434
#   153117
#   165360
#   177648
#   190897
#   203241
#   215278
#   228618
#   241836
#   254298
#   266408
#   278195
#   291987
#   304289
#
# Disc length: 4222 seconds
#
# Revision: 2
# Processed by: cddbd v1.5.1PL0 Copyright (c) Steve Scherf et al.
# Submitted via: Media_Universe 3.0
#
DISCID=6a107c19
DTITLE=Moon Mullican 1938-1950 - Les Triomphes De La Country Music Vol.9
DYEAR=2002
DGENRE=Country
TTITLE0=Kangaroo Blues (With Cliff Bruner's Texas Wanderers)
TTITLE1=Rockin' Rollin' Mama (With Buddy Jones)
TTITLE2=Pipeliner Blues (With The Modern Mountaineers)
TTITLE3=The Lonesome Hearted Blues
TTITLE4=Showboy Special
TTITLE5=Shoot The Moon
TTITLE6=Don't Ever Take My Picture Down
TTITLE7=You Had Your Way
TTITLE8=What Have I Done That Made You Leave
TTITLE9=New Milk Cow Blues (With Cotton Thompson)
TTITLE10=Ther's A Little Bit Of Heaven Everywhere
TTITLE11=There's A Chill On The Hill Tonight
TTITLE12=Columbus Stockade Blues
TTITLE13=Jole Blon's Sister
TTITLE14=I'm Gonna Move Home Bye And Bye
TTITLE15=I Left My Heart In Kansas
TTITLE16=Triflin' Woman Blues
TTITLE17=Sweeter Than The Flowers
TTITLE18=Broken Dreams
TTITLE19=I Don't Know What I Do
TTITLE20=What My Eyes See My Heart Believes
TTITLE21=Trouble Trouble
TTITLE22=I'll Sail My Ship Alone
TTITLE23=Moon's Tune
TTITLE24=I Was Sorta Wonderin'
EXTD=YEAR: 2002
EXTT0=
EXTT1=
EXTT2=
EXTT3=
EXTT4=
EXTT5=
EXTT6=
EXTT7=
EXTT8=
EXTT9=
EXTT10=
EXTT11=
EXTT12=
EXTT13=
EXTT14=
EXTT15=
EXTT16=
EXTT17=
EXTT18=
EXTT19=
EXTT20=
EXTT21=
EXTT22=
EXTT23=
EXTT24=
PLAYORDER=
